<svg width="46" height="40" viewBox="0 0 46 40" fill="none" xmlns="http://www.w3.org/2000/svg">
<g clip-path="url(#clip0_1_1225)">
<path d="M7.92994 37.5452V37.5445H7.91781H7.91531H7.91317H6.66648V37.5438C6.66256 37.5438 6.65864 37.5441 6.65471 37.5445H6.64651C5.95699 37.542 5.39839 36.9928 5.3884 36.3118L5.38805 33.7896V25.0288V21.8189L3.57491 20.0236L5.38805 18.2279V13.0479V6.61856V3.72973C5.40125 3.05158 5.95842 2.50553 6.64579 2.50306H6.654C6.65792 2.50341 6.66185 2.50377 6.66613 2.50412V2.50306H7.91246H7.91495H7.9171H7.92922V2.50236C8.62088 2.49458 9.17876 1.93794 9.17876 1.25167V1.25132C9.17876 0.565046 8.62088 0.00840371 7.92922 0.000633294V0.000277592H7.92566C7.92209 0.000277592 7.91852 -7.54146e-05 7.91495 -7.54146e-05C7.91103 -7.54146e-05 7.90782 0.000277592 7.9039 0.000277592H5.40196V0.000633294C5.39697 0.000633294 5.39233 0.000277592 5.38769 0.000277592C3.99154 0.000277592 2.86007 1.12063 2.85971 2.50271V6.61856V8.53114V11.8035V13.0479V17.1916L0 20.0236L2.85971 22.8548V25.0288V28.617V32.3574V33.7896V37.5448H2.86043C2.86078 38.9269 3.99226 40.0473 5.3884 40.0473C5.39304 40.0473 5.39768 40.0469 5.40232 40.0469L7.90461 40.0473C7.90818 40.0473 7.91174 40.0476 7.91531 40.0476C7.91924 40.0476 7.92245 40.0473 7.92637 40.0473H7.92994C8.62123 40.0398 9.17948 39.4825 9.17948 38.7962C9.17948 38.1099 8.62123 37.5526 7.92994 37.5452Z" fill="#191A42"/>
<path d="M38.2319 2.5026V2.5033H38.244H38.2465H38.2487H39.4954V2.50401C39.4993 2.50401 39.5032 2.5033 39.5075 2.5033H39.5153C40.2048 2.50578 40.7638 3.055 40.7738 3.73597V6.25783V15.0186V18.2289L42.5873 20.0242L40.7738 21.8199V26.9999V33.4292V36.318C40.7606 36.9962 40.2034 37.5422 39.516 37.5447H39.5082C39.5039 37.5444 39.5 37.544 39.4957 37.544V37.5447H38.2494H38.2469H38.2447H38.2326V37.5454C37.5413 37.5528 36.9831 38.1098 36.9831 38.7965C36.9831 39.4827 37.5413 40.0394 38.2326 40.0471V40.0475H38.2362C38.2398 40.0475 38.2433 40.0479 38.2469 40.0479C38.2508 40.0479 38.254 40.0475 38.2579 40.0475H40.7602V40.0471C40.7649 40.0471 40.7695 40.0475 40.7741 40.0475C42.1703 40.0475 43.3021 38.9271 43.3021 37.5451V33.4292V31.5166V28.2442V26.9999V22.8562L46.1622 20.0242L43.3021 17.1926V15.0186V11.4308V7.69041V6.25783V2.50295H43.3014C43.3014 1.12087 42.1699 0.000521733 40.7738 0.000521733C40.7688 0.000521733 40.7642 0.00087474 40.7595 0.00087474L38.2572 0.000521733C38.2537 0.000521733 38.2501 0.000168726 38.2465 0.000168726C38.243 0.000168726 38.2394 0.000521733 38.2358 0.000521733H38.2319C37.5406 0.00793895 36.9824 0.56529 36.9824 1.25156C36.9824 1.93818 37.5406 2.49483 38.2319 2.5026Z" fill="#191B41"/>
<path d="M29.4022 17.5205H25.6104C24.9123 17.5205 24.3466 16.9603 24.3466 16.2691C24.3466 15.5779 24.9123 15.0177 25.6104 15.0177H29.4022C30.1002 15.0177 30.666 15.5779 30.666 16.2691C30.666 16.9603 30.1002 17.5205 29.4022 17.5205Z" fill="#7763A5"/>
<path d="M14.235 13.7664C13.5369 13.7664 12.9712 13.2062 12.9712 12.515C12.9712 11.8238 13.5369 11.2636 14.235 11.2636C14.9331 11.2636 15.4988 11.8238 15.4988 12.515C15.4988 13.2062 14.9331 13.7664 14.235 13.7664Z" fill="#7763A5"/>
<path d="M23.0825 36.2927C22.3844 36.2927 21.8187 35.7325 21.8187 35.0413C21.8187 34.3501 22.3844 33.7899 23.0825 33.7899C23.7805 33.7899 24.3463 34.3501 24.3463 35.0413C24.3463 35.7325 23.7805 36.2927 23.0825 36.2927Z" fill="#7763A5"/>
<path d="M21.8185 25.0295H18.0267C17.3286 25.0295 16.7629 24.469 16.7629 23.7778C16.7629 23.0866 17.3286 22.5264 18.0267 22.5264H21.8185C22.5165 22.5264 23.0823 23.0866 23.0823 23.7778C23.0823 24.469 22.5165 25.0295 21.8185 25.0295Z" fill="#7763A5"/>
<path d="M18.0268 32.5381H15.4992C14.8011 32.5381 14.235 31.9779 14.235 31.2867C14.235 30.5955 14.8011 30.0353 15.4992 30.0353H18.0268C18.7248 30.0353 19.2906 30.5955 19.2906 31.2867C19.2906 31.9779 18.7248 32.5381 18.0268 32.5381Z" fill="#7763A5"/>
<path d="M19.2908 36.2927H14.2352C13.5371 36.2927 12.971 35.7325 12.971 35.0413C12.971 34.3501 13.5371 33.7899 14.2352 33.7899H19.2908C19.9888 33.7899 20.5546 34.3501 20.5546 35.0413C20.5546 35.7325 19.9888 36.2927 19.2908 36.2927Z" fill="#EA4680"/>
<path d="M26.8742 21.2751H23.0824C22.3843 21.2751 21.8186 20.7146 21.8186 20.0238C21.8186 19.3325 22.3843 18.7724 23.0824 18.7724H26.8742C27.5723 18.7724 28.138 19.3325 28.138 20.0238C28.138 20.7146 27.5723 21.2751 26.8742 21.2751Z" fill="#EA4680"/>
<path d="M29.4022 10.012C28.7041 10.012 28.1384 9.45179 28.1384 8.76057C28.1384 8.06936 28.7041 7.50883 29.4022 7.50883C30.1003 7.50883 30.666 8.06936 30.666 8.76057C30.666 9.45179 30.1003 10.012 29.4022 10.012Z" fill="#EA4680"/>
<path d="M29.4021 28.7837H20.5548C19.8567 28.7837 19.2906 28.2235 19.2906 27.5323C19.2906 26.8411 19.8567 26.2809 20.5548 26.2809H29.4021C30.1002 26.2809 30.6659 26.8411 30.6659 27.5323C30.6659 28.2235 30.1002 28.7837 29.4021 28.7837Z" fill="#EA4680"/>
<path d="M24.3465 13.7664H18.0267C17.3286 13.7664 16.7629 13.2062 16.7629 12.515C16.7629 11.8238 17.3286 11.2636 18.0267 11.2636H24.3465C25.0445 11.2636 25.6103 11.8238 25.6103 12.515C25.6103 13.2062 25.0445 13.7664 24.3465 13.7664Z" fill="#EA4680"/>
<path d="M26.8742 6.25732H19.2907C18.5926 6.25732 18.0269 5.69715 18.0269 5.00593C18.0269 4.31472 18.5926 3.75419 19.2907 3.75419H26.8742C27.5723 3.75419 28.138 4.31472 28.138 5.00593C28.138 5.69715 27.5723 6.25732 26.8742 6.25732Z" fill="#F6BF30"/>
<path d="M31.9299 13.7664H28.1381C27.4401 13.7664 26.8743 13.2062 26.8743 12.515C26.8743 11.8238 27.4401 11.2636 28.1381 11.2636H31.9299C32.628 11.2636 33.1937 11.8238 33.1937 12.515C33.1937 13.2062 32.628 13.7664 31.9299 13.7664Z" fill="#F6BF30"/>
<path d="M31.9299 36.2927H26.8743C26.1763 36.2927 25.6102 35.7325 25.6102 35.0413C25.6102 34.3501 26.1763 33.7899 26.8743 33.7899H31.9299C32.628 33.7899 33.1937 34.3501 33.1937 35.0413C33.1937 35.7325 32.628 36.2927 31.9299 36.2927Z" fill="#F6BF30"/>
<path d="M26.8742 32.5381H21.8186C21.1205 32.5381 20.5548 31.9779 20.5548 31.2867C20.5548 30.5955 21.1205 30.0353 21.8186 30.0353H26.8742C27.5723 30.0353 28.138 30.5955 28.138 31.2867C28.138 31.9779 27.5723 32.5381 26.8742 32.5381Z" fill="#F6BF30"/>
<path d="M19.2907 21.2751C18.5927 21.2751 18.0269 20.7146 18.0269 20.0238C18.0269 19.3325 18.5927 18.7724 19.2907 18.7724C19.9888 18.7724 20.5545 19.3325 20.5545 20.0238C20.5545 20.7146 19.9888 21.2751 19.2907 21.2751Z" fill="#F6BF30"/>
<path d="M30.666 32.5381C29.9679 32.5381 29.4022 31.9779 29.4022 31.2867C29.4022 30.5955 29.9679 30.0353 30.666 30.0353C31.364 30.0353 31.9298 30.5955 31.9298 31.2867C31.9298 31.9779 31.364 32.5381 30.666 32.5381Z" fill="#48C3D7"/>
<path d="M25.6105 10.012H16.7627C16.065 10.012 15.4989 9.45179 15.4989 8.76057C15.4989 8.06936 16.065 7.50883 16.7627 7.50883H25.6105C26.3085 7.50883 26.8743 8.06936 26.8743 8.76057C26.8743 9.45179 26.3085 10.012 25.6105 10.012Z" fill="#48C3D7"/>
<path d="M21.8185 17.5205H16.7629C16.0648 17.5205 15.4991 16.9603 15.4991 16.2691C15.4991 15.5779 16.0648 15.0177 16.7629 15.0177H21.8185C22.5166 15.0177 23.0823 15.5779 23.0823 16.2691C23.0823 16.9603 22.5166 17.5205 21.8185 17.5205Z" fill="#48C3D7"/>
<path d="M16.763 28.7837C16.0649 28.7837 15.4991 28.2235 15.4991 27.5323C15.4991 26.8411 16.0649 26.2809 16.763 26.2809C17.461 26.2809 18.0268 26.8411 18.0268 27.5323C18.0268 28.2235 17.461 28.7837 16.763 28.7837Z" fill="#48C3D7"/>
<path d="M28.1382 25.0295H25.6102C24.9125 25.0295 24.3464 24.469 24.3464 23.7778C24.3464 23.0866 24.9125 22.5264 25.6102 22.5264H28.1382C28.8363 22.5264 29.402 23.0866 29.402 23.7778C29.402 24.469 28.8363 25.0295 28.1382 25.0295Z" fill="#48C3D7"/>
</g>
<defs>
<clipPath id="clip0_1_1225">
<rect width="46" height="40" fill="white"/>
</clipPath>
</defs>
</svg>
